<svg width="20" height="20" viewBox="0 0 20 20" fill="none" xmlns="http://www.w3.org/2000/svg">
<g id="Target" clip-path="url(#clip0_0_426)">
<path id="Vector" d="M10 10L17.5 2.5" stroke="#333333" stroke-width="1.25" stroke-linecap="round" stroke-linejoin="round"/>
<path id="Vector_2" d="M15.3031 4.69687C13.9747 3.37157 12.1972 2.59314 10.3224 2.51556C8.4475 2.43799 6.61181 3.06693 5.17844 4.27796C3.74507 5.48899 2.81844 7.1939 2.58186 9.05539C2.34528 10.9169 2.81598 12.7994 3.90086 14.3305C4.98573 15.8615 6.60574 16.9297 8.44041 17.3235C10.2751 17.7174 12.1908 17.4083 13.8085 16.4575C15.4262 15.5066 16.6281 13.9832 17.1764 12.1886C17.7247 10.3941 17.5795 8.45904 16.7695 6.7664" stroke="#333333" stroke-width="1.25" stroke-linecap="round" stroke-linejoin="round"/>
<path id="Vector_3" d="M12.6516 7.34845C12.0312 6.72887 11.2134 6.34623 10.3402 6.26704C9.46707 6.18785 8.59376 6.41711 7.87207 6.91498C7.15039 7.41285 6.62597 8.14785 6.38996 8.99224C6.15394 9.83662 6.22125 10.737 6.58018 11.5369C6.93912 12.3368 7.56699 12.9857 8.35467 13.3707C9.14235 13.7558 10.04 13.8527 10.8917 13.6445C11.7434 13.4364 12.4953 12.9364 13.0166 12.2315C13.5379 11.5266 13.7958 10.6613 13.7453 9.78595" stroke="#333333" stroke-width="1.25" stroke-linecap="round" stroke-linejoin="round"/>
</g>
<defs>
<clipPath id="clip0_0_426">
<rect width="20" height="20" fill="white"/>
</clipPath>
</defs>
</svg>
