<svg width="149" height="22" viewBox="0 0 149 22" fill="none" xmlns="http://www.w3.org/2000/svg">
<path d="M5.11491 4.76552V8.51502C5.11491 8.5616 5.12267 8.60041 5.1382 8.63146C5.16925 8.64699 5.2003 8.66251 5.23136 8.67804H5.44096C5.767 8.67804 6.17067 8.4141 6.65197 7.88622C7.89404 6.55099 9.26032 4.99841 10.7508 3.22846C10.9992 2.93347 11.1234 2.70058 11.1234 2.52979C11.1234 2.37453 10.9526 2.26585 10.6111 2.20375C10.2695 2.14165 9.98228 2.11059 9.74939 2.11059C9.68728 2.11059 9.64847 2.0252 9.63294 1.85442C9.61742 1.66811 9.62518 1.52061 9.65623 1.41193C11.3796 1.50508 12.3189 1.55166 12.4742 1.55166C12.7692 1.55166 13.0564 1.5439 13.3359 1.52837C13.6309 1.51285 13.9414 1.49732 14.2674 1.4818C14.609 1.45074 14.8885 1.42746 15.1058 1.41193C15.1369 1.47403 15.1446 1.606 15.1291 1.80784C15.1291 2.00968 15.1058 2.11059 15.0592 2.11059C13.9724 2.2348 13.1884 2.56084 12.7071 3.08872L8.37535 8.02595C8.20456 8.22779 8.22009 8.44515 8.42192 8.67804L13.8715 15.1523C14.151 15.4939 14.5236 15.7423 14.9894 15.8976C15.4707 16.0528 15.82 16.1305 16.0374 16.1305C16.115 16.1305 16.1538 16.278 16.1538 16.5729C16.1538 16.6972 16.1305 16.8058 16.0839 16.899C14.2208 16.8058 13.1573 16.7593 12.8934 16.7593C12.3965 16.7593 11.7988 16.7825 11.1001 16.8291C10.417 16.8602 9.9357 16.8835 9.65623 16.899C9.59413 16.8369 9.56308 16.6972 9.56308 16.4798C9.56308 16.2469 9.59413 16.1305 9.65623 16.1305C9.82702 16.1305 10.0444 16.0761 10.3083 15.9674C10.5723 15.8588 10.7042 15.7423 10.7042 15.6181C10.7042 15.5405 10.4869 15.2144 10.0521 14.64C9.61742 14.0655 9.01967 13.3358 8.2589 12.4508C7.49813 11.5503 6.74513 10.7119 5.99989 9.93564C5.93778 9.87353 5.767 9.84248 5.48753 9.84248C5.23912 9.84248 5.11491 9.93564 5.11491 10.1219V13.5687C5.11491 14.3916 5.18478 15.0747 5.32451 15.6181C5.35556 15.7268 5.56516 15.8432 5.95331 15.9674C6.35698 16.0761 6.62868 16.1305 6.76842 16.1305C6.83052 16.1305 6.86157 16.278 6.86157 16.5729C6.86157 16.6972 6.84605 16.8058 6.815 16.899C4.95189 16.8058 3.966 16.7593 3.85732 16.7593C3.5468 16.7593 3.22075 16.767 2.87919 16.7825C2.53762 16.7981 2.15723 16.8136 1.73803 16.8291C1.33436 16.8602 1.00832 16.8835 0.759903 16.899C0.6978 16.8369 0.666748 16.7282 0.666748 16.5729C0.666748 16.278 0.6978 16.1305 0.759903 16.1305C0.946214 16.1305 1.23344 16.0761 1.62159 15.9674C2.02526 15.8588 2.25039 15.7423 2.29697 15.6181C2.42117 15.1368 2.48328 14.4847 2.48328 13.6618V4.67236C2.48328 3.74081 2.42117 3.08872 2.29697 2.7161C2.23486 2.5919 2.0175 2.47545 1.64488 2.36677C1.27226 2.24256 0.992791 2.18046 0.806481 2.18046C0.744377 2.18046 0.713326 2.06402 0.713326 1.83113C0.713326 1.58271 0.728852 1.44298 0.759903 1.41193C0.837533 1.41193 1.26449 1.43522 2.04079 1.4818C2.83261 1.52837 3.43812 1.55166 3.85732 1.55166C3.98152 1.55166 4.97518 1.50508 6.83828 1.41193C6.88486 1.55166 6.90815 1.67587 6.90815 1.78455C6.90815 2.04849 6.8771 2.18046 6.815 2.18046C6.67526 2.18046 6.3958 2.24256 5.9766 2.36677C5.5574 2.49098 5.33227 2.60742 5.30122 2.7161C5.17702 3.19741 5.11491 3.88054 5.11491 4.76552Z" fill="black"/>
<path d="M18.274 3.78739C17.9946 3.4924 17.8548 3.15083 17.8548 2.76268C17.8548 2.35901 17.9946 2.01744 18.274 1.73797C18.5535 1.45851 18.8951 1.31877 19.2987 1.31877C19.7024 1.31877 20.044 1.45851 20.3234 1.73797C20.6029 2.01744 20.7426 2.35901 20.7426 2.76268C20.7426 3.15083 20.6029 3.4924 20.3234 3.78739C20.044 4.06685 19.7024 4.20659 19.2987 4.20659C18.8951 4.20659 18.5535 4.06685 18.274 3.78739ZM20.6961 13.5221C20.6961 14.4692 20.7582 15.1679 20.8824 15.6181C20.9134 15.7268 21.123 15.8432 21.5112 15.9674C21.8993 16.0761 22.1633 16.1305 22.303 16.1305C22.3651 16.1305 22.3961 16.2469 22.3961 16.4798C22.4117 16.6972 22.4039 16.8447 22.3729 16.9223C22.2642 16.9068 21.845 16.8757 21.1153 16.8291C20.4011 16.7825 19.8732 16.7593 19.5316 16.7593C19.1435 16.7593 18.5923 16.7825 17.8781 16.8291C17.1794 16.8757 16.7758 16.9068 16.6671 16.9223C16.605 16.8602 16.5739 16.7127 16.5739 16.4798C16.5739 16.2469 16.605 16.1305 16.6671 16.1305C16.8379 16.1305 17.1173 16.0761 17.5055 15.9674C17.8936 15.8432 18.1032 15.7268 18.1343 15.6181C18.243 15.1523 18.2973 14.5856 18.2973 13.918V10.1219C18.2973 9.39223 18.1731 8.8954 17.9247 8.63146C17.785 8.4762 17.6064 8.35976 17.389 8.28213C17.1717 8.2045 16.9854 8.15792 16.8301 8.1424C16.6749 8.12687 16.5972 8.10358 16.5972 8.07253C16.5972 7.62228 16.6438 7.38939 16.737 7.37387C17.1717 7.34281 17.8005 7.24966 18.6234 7.0944C19.4462 6.93914 20.0595 6.79941 20.4632 6.6752C20.4787 6.6752 20.5098 6.66744 20.5563 6.65191C20.6184 6.63639 20.6495 6.62862 20.6495 6.62862C20.7271 6.62862 20.7892 6.68296 20.8358 6.79165C20.8824 6.90033 20.8979 6.98572 20.8824 7.04782C20.7582 8.04148 20.6961 8.70909 20.6961 9.05066V13.5221Z" fill="black"/>
<path d="M30.1988 6.53547C30.7888 6.53547 31.2934 6.69073 31.7126 7.00125C32.1318 7.29624 32.4423 7.68438 32.6442 8.16569C33.0944 7.69991 33.6611 7.31176 34.3442 7.00125C35.0274 6.69073 35.7571 6.53547 36.5334 6.53547C37.0923 6.53547 37.5659 6.65968 37.954 6.90809C38.3577 7.1565 38.6682 7.50584 38.8856 7.95609C39.1185 8.39081 39.2815 8.87211 39.3746 9.39999C39.4833 9.91235 39.5376 10.4713 39.5376 11.0768V13.5221C39.5376 14.4692 39.592 15.1679 39.7007 15.6181C39.7317 15.7268 39.9413 15.8432 40.3295 15.9674C40.7176 16.0761 40.9816 16.1305 41.1213 16.1305C41.1679 16.1305 41.1912 16.2469 41.1912 16.4798C41.2067 16.6972 41.1989 16.8447 41.1679 16.9223C41.0592 16.9068 40.6477 16.8757 39.9336 16.8291C39.2349 16.7825 38.707 16.7593 38.3499 16.7593C37.9773 16.7593 37.4417 16.7825 36.743 16.8291C36.0598 16.8757 35.6484 16.9068 35.5087 16.9223C35.4621 16.8602 35.4388 16.7127 35.4388 16.4798C35.4388 16.2469 35.4621 16.1305 35.5087 16.1305C35.695 16.1305 35.9745 16.0761 36.3471 15.9674C36.7197 15.8432 36.9215 15.7268 36.9526 15.6181C37.0613 15.1523 37.1156 14.6089 37.1156 13.9879V11.6124C37.1156 9.36118 36.3937 8.23555 34.9497 8.23555C34.4374 8.23555 34.0104 8.35976 33.6689 8.60817C33.3273 8.85659 33.1255 9.09724 33.0634 9.33013C33.0634 9.37671 33.0556 9.43881 33.0401 9.51644C33.0401 9.59407 33.0478 9.65617 33.0634 9.70275C33.1099 10.0443 33.1332 10.5256 33.1332 11.1467V13.6153C33.1332 14.5002 33.1876 15.1679 33.2962 15.6181C33.3273 15.7268 33.5369 15.8432 33.925 15.9674C34.3132 16.0761 34.5771 16.1305 34.7169 16.1305C34.7634 16.1305 34.7867 16.2469 34.7867 16.4798C34.8023 16.6972 34.7945 16.8447 34.7634 16.9223C34.6548 16.9068 34.2433 16.8757 33.5291 16.8291C32.8305 16.7825 32.3026 16.7593 31.9455 16.7593C31.5729 16.7593 31.0372 16.7825 30.3386 16.8291C29.6554 16.8757 29.244 16.9068 29.1043 16.9223C29.0577 16.8602 29.0344 16.7127 29.0344 16.4798C29.0344 16.2469 29.0577 16.1305 29.1043 16.1305C29.2906 16.1305 29.57 16.0761 29.9427 15.9674C30.3153 15.8432 30.5171 15.7268 30.5482 15.6181C30.6568 15.1523 30.7112 14.5856 30.7112 13.918V11.6823C30.7112 10.4713 30.5326 9.59407 30.1755 9.05066C29.8184 8.50726 29.2906 8.23555 28.5919 8.23555C28.1261 8.23555 27.6992 8.36752 27.311 8.63146C26.9229 8.8954 26.7288 9.19039 26.7288 9.51644V13.5221C26.7288 14.4692 26.7909 15.1679 26.9151 15.6181C26.9462 15.7268 27.148 15.8432 27.5206 15.9674C27.8932 16.0761 28.1494 16.1305 28.2891 16.1305C28.3513 16.1305 28.3823 16.2469 28.3823 16.4798C28.3978 16.6972 28.3901 16.8447 28.359 16.9223C28.2348 16.9068 27.8234 16.8757 27.1247 16.8291C26.4416 16.7825 25.9215 16.7593 25.5644 16.7593C25.1762 16.7593 24.6328 16.7825 23.9341 16.8291C23.2355 16.8757 22.824 16.9068 22.6998 16.9223C22.6377 16.8602 22.6067 16.7127 22.6067 16.4798C22.6067 16.2469 22.6377 16.1305 22.6998 16.1305C22.8706 16.1305 23.1501 16.0761 23.5382 15.9674C23.9264 15.8432 24.136 15.7268 24.167 15.6181C24.2757 15.1523 24.33 14.5856 24.33 13.918V10.1219C24.33 9.39223 24.2058 8.8954 23.9574 8.63146C23.8332 8.4762 23.6547 8.35976 23.4218 8.28213C23.2044 8.2045 23.0181 8.15792 22.8629 8.1424C22.7076 8.12687 22.63 8.10358 22.63 8.07253C22.63 7.62228 22.6765 7.38939 22.7697 7.37387C23.4839 7.31176 24.726 7.07888 26.4959 6.6752C26.5114 6.65968 26.5347 6.65191 26.5658 6.65191C26.5968 6.63639 26.6201 6.62862 26.6356 6.62862C26.6667 6.62862 26.6822 6.62862 26.6822 6.62862C26.7598 6.62862 26.822 6.68296 26.8685 6.79165C26.9151 6.90033 26.9306 6.98572 26.9151 7.04782C26.853 7.48255 26.822 7.76201 26.822 7.88622C26.822 7.94832 26.8375 7.98714 26.8685 8.00266C26.8841 8.00266 26.9229 7.97938 26.985 7.9328C27.3576 7.56018 27.8311 7.23413 28.4056 6.95467C28.9956 6.6752 29.5933 6.53547 30.1988 6.53547Z" fill="black"/>
<path d="M46.2458 7.63004C45.516 7.63004 44.9493 7.98714 44.5457 8.70133C44.142 9.39999 43.9402 10.2384 43.9402 11.2165C43.9402 12.4741 44.1886 13.5687 44.6854 14.5002C45.1978 15.4318 45.9042 15.8976 46.8047 15.8976C47.5344 15.8976 48.1011 15.5405 48.5048 14.8263C48.924 14.1121 49.1336 13.2737 49.1336 12.3111C49.1336 11.5038 49.0327 10.7585 48.8308 10.0754C48.629 9.37671 48.3029 8.79448 47.8527 8.32871C47.4024 7.86293 46.8668 7.63004 46.2458 7.63004ZM46.5485 6.53547C48.0079 6.53547 49.25 7.04782 50.2747 8.07253C51.315 9.08171 51.8351 10.3083 51.8351 11.7522C51.8351 13.1961 51.3227 14.4304 50.298 15.4551C49.2888 16.4798 48.0468 16.9921 46.5718 16.9921C45.0968 16.9921 43.847 16.4798 42.8223 15.4551C41.7976 14.4304 41.2852 13.1961 41.2852 11.7522C41.2852 10.2927 41.7898 9.05842 42.799 8.04924C43.8237 7.04006 45.0736 6.53547 46.5485 6.53547Z" fill="black"/>
<path d="M54.6307 6.76836C54.9722 6.76836 55.4613 6.74507 56.0979 6.69849C56.7344 6.65191 57.1303 6.62862 57.2856 6.62862C57.3166 6.73731 57.3322 6.87704 57.3322 7.04782C57.3322 7.26519 57.3011 7.37387 57.239 7.37387C57.0837 7.37387 56.8353 7.43597 56.4938 7.56018C56.1677 7.66886 55.9969 7.79307 55.9814 7.9328V8.07253C56.0125 8.32095 56.7344 10.0909 58.1473 13.3824C58.2715 13.1029 58.5742 12.3421 59.0555 11.1001C59.5368 9.84248 59.8163 9.12053 59.8939 8.93422C59.9871 8.67028 60.0337 8.42963 60.0337 8.21226C60.0337 8.01043 59.9095 7.82412 59.661 7.65333C59.4126 7.46702 59.04 7.37387 58.5432 7.37387C58.4811 7.37387 58.45 7.25742 58.45 7.02453C58.45 6.8227 58.4811 6.69073 58.5432 6.62862C58.7295 6.62862 59.1099 6.65191 59.6843 6.69849C60.2588 6.74507 60.7323 6.76836 61.1049 6.76836C61.431 6.76836 61.8269 6.74507 62.2927 6.69849C62.774 6.65191 63.1233 6.62862 63.3407 6.62862C63.4028 6.72178 63.4338 6.84599 63.4338 7.00125C63.4338 7.24966 63.4028 7.37387 63.3407 7.37387C63.1233 7.37387 62.805 7.4515 62.3858 7.60675C61.9822 7.76201 61.7182 7.9949 61.594 8.30542L57.3322 18.5991C56.3696 20.8659 55.2129 21.9992 53.8621 21.9992C53.4585 21.9992 53.1479 21.8906 52.9306 21.6732C52.7132 21.4558 52.6045 21.2074 52.6045 20.928C52.6045 20.5243 52.752 20.2215 53.047 20.0197C54.6617 20.0197 55.7252 19.3831 56.2376 18.11C56.6102 17.1785 56.8198 16.6506 56.8664 16.5264L53.4662 8.60817C53.342 8.32871 53.2489 8.15016 53.1868 8.07253C53.0315 7.83964 52.7986 7.66886 52.4881 7.56018C52.1931 7.43597 51.9447 7.37387 51.7428 7.37387C51.6807 7.37387 51.6497 7.26519 51.6497 7.04782C51.6497 6.79941 51.673 6.65968 51.7196 6.62862C51.8127 6.62862 52.2241 6.65191 52.9539 6.69849C53.6991 6.74507 54.258 6.76836 54.6307 6.76836Z" fill="black"/>
<path d="M68.3487 7.63004C67.619 7.63004 67.0523 7.98714 66.6486 8.70133C66.2449 9.39999 66.0431 10.2384 66.0431 11.2165C66.0431 12.4741 66.2915 13.5687 66.7884 14.5002C67.3007 15.4318 68.0071 15.8976 68.9076 15.8976C69.6374 15.8976 70.204 15.5405 70.6077 14.8263C71.0269 14.1121 71.2365 13.2737 71.2365 12.3111C71.2365 11.5038 71.1356 10.7585 70.9338 10.0754C70.7319 9.37671 70.4059 8.79448 69.9556 8.32871C69.5054 7.86293 68.9697 7.63004 68.3487 7.63004ZM68.6515 6.53547C70.1109 6.53547 71.353 7.04782 72.3777 8.07253C73.4179 9.08171 73.938 10.3083 73.938 11.7522C73.938 13.1961 73.4257 14.4304 72.401 15.4551C71.3918 16.4798 70.1497 16.9921 68.6748 16.9921C67.1998 16.9921 65.95 16.4798 64.9252 15.4551C63.9005 14.4304 63.3882 13.1961 63.3882 11.7522C63.3882 10.2927 63.8928 9.05842 64.902 8.04924C65.9267 7.04006 67.1765 6.53547 68.6515 6.53547Z" fill="black"/>
<path d="M79.9484 4.67236C79.9484 3.74081 79.8863 3.08872 79.7621 2.7161C79.7 2.5919 79.4826 2.47545 79.11 2.36677C78.7374 2.24256 78.4579 2.18046 78.2716 2.18046C78.2095 2.18046 78.1785 2.06402 78.1785 1.83113C78.1785 1.58271 78.194 1.44298 78.225 1.41193C78.3027 1.41193 78.7296 1.43522 79.5059 1.4818C80.2977 1.52837 80.9032 1.55166 81.3224 1.55166C81.4466 1.55166 82.4403 1.50508 84.3034 1.41193C84.35 1.55166 84.3733 1.67587 84.3733 1.78455C84.3733 2.04849 84.3422 2.18046 84.2801 2.18046C84.1404 2.18046 83.8609 2.24256 83.4417 2.36677C83.0225 2.49098 82.7974 2.60742 82.7663 2.7161C82.6421 3.19741 82.58 3.88054 82.58 4.76552V13.5221C82.58 14.376 82.6499 15.0747 82.7896 15.6181C82.8207 15.7268 83.0303 15.8432 83.4184 15.9674C83.8221 16.0761 84.0938 16.1305 84.2335 16.1305C84.2956 16.1305 84.3267 16.278 84.3267 16.5729C84.3267 16.6972 84.3112 16.8058 84.2801 16.899C82.417 16.8058 81.4311 16.7593 81.3224 16.7593C81.0119 16.7593 80.6859 16.767 80.3443 16.7825C80.0027 16.7981 79.6224 16.8136 79.2032 16.8291C78.7995 16.8602 78.4734 16.8835 78.225 16.899C78.1629 16.8369 78.1319 16.7282 78.1319 16.5729C78.1319 16.278 78.1629 16.1305 78.225 16.1305C78.4113 16.1305 78.6986 16.0761 79.0867 15.9674C79.4904 15.8588 79.7155 15.7423 79.7621 15.6181C79.8863 15.1368 79.9484 14.4847 79.9484 13.6618V4.67236Z" fill="black"/>
<path d="M92.339 6.53547C94.3418 6.53547 95.3432 8.12687 95.3432 11.3097V13.5221C95.3432 14.4692 95.3976 15.1679 95.5063 15.6181C95.5373 15.7268 95.7469 15.8432 96.1351 15.9674C96.5387 16.0761 96.8104 16.1305 96.9502 16.1305C96.9967 16.1305 97.02 16.2469 97.02 16.4798C97.0356 16.6972 97.0278 16.8447 96.9967 16.9223C96.9036 16.9068 96.4922 16.8757 95.7624 16.8291C95.0482 16.7825 94.5126 16.7593 94.1555 16.7593C93.7829 16.7593 93.2628 16.7825 92.5952 16.8291C91.9431 16.8757 91.5472 16.9068 91.4074 16.9223C91.3453 16.8602 91.3143 16.7127 91.3143 16.4798C91.3143 16.2469 91.3453 16.1305 91.4074 16.1305C91.5782 16.1305 91.8344 16.0761 92.176 15.9674C92.5331 15.8432 92.7271 15.7268 92.7582 15.6181C92.8824 15.1523 92.9445 14.5856 92.9445 13.918V11.7056C92.9445 10.4169 92.7659 9.51644 92.4089 9.00408C92.0673 8.49173 91.5161 8.23555 90.7553 8.23555C90.2585 8.23555 89.8238 8.37529 89.4512 8.65475C89.0785 8.91869 88.8922 9.20592 88.8922 9.51644V13.5221C88.8922 14.4692 88.9466 15.1679 89.0553 15.6181C89.0863 15.7268 89.2881 15.8432 89.6608 15.9674C90.0489 16.0761 90.3051 16.1305 90.4293 16.1305C90.4914 16.1305 90.5225 16.2469 90.5225 16.4798C90.538 16.6972 90.5302 16.8447 90.4992 16.9223C90.375 16.9068 89.9635 16.8757 89.2649 16.8291C88.5817 16.7825 88.0616 16.7593 87.7045 16.7593C87.3319 16.7593 86.7885 16.7825 86.0743 16.8291C85.3756 16.8757 84.9642 16.9068 84.84 16.9223C84.7779 16.8602 84.7468 16.7127 84.7468 16.4798C84.7468 16.2469 84.7779 16.1305 84.84 16.1305C85.0263 16.1305 85.3058 16.0761 85.6784 15.9674C86.0665 15.8432 86.2761 15.7268 86.3072 15.6181C86.4159 15.1523 86.4702 14.5856 86.4702 13.918V10.1219C86.4702 9.39223 86.346 8.8954 86.0976 8.63146C85.9734 8.4762 85.7948 8.35976 85.5619 8.28213C85.3446 8.2045 85.1583 8.15792 85.003 8.1424C84.8633 8.12687 84.7934 8.10358 84.7934 8.07253C84.7934 7.62228 84.8322 7.38939 84.9099 7.37387C85.624 7.31176 86.8739 7.07888 88.6593 6.6752C88.6749 6.65968 88.6904 6.65191 88.7059 6.65191C88.737 6.63639 88.7603 6.62862 88.7758 6.62862C88.8068 6.62862 88.8301 6.62862 88.8457 6.62862C88.9078 6.62862 88.9621 6.68296 89.0087 6.79165C89.0553 6.90033 89.0785 6.98572 89.0785 7.04782C89.0164 7.48255 88.9854 7.76201 88.9854 7.88622C88.9854 7.94832 88.9932 7.98714 89.0087 8.00266C89.0242 8.00266 89.063 7.97938 89.1251 7.9328C89.4977 7.56018 89.9713 7.23413 90.5457 6.95467C91.1357 6.6752 91.7335 6.53547 92.339 6.53547Z" fill="black"/>
<path d="M101.166 6.51218C102.036 6.51218 102.936 6.64415 103.868 6.90809C104.023 7.60675 104.109 8.4762 104.124 9.51644C104.124 9.64065 104.023 9.70275 103.821 9.70275C103.48 9.70275 103.293 9.64065 103.262 9.51644C103.154 8.97303 102.921 8.51502 102.564 8.1424C102.222 7.75425 101.756 7.56018 101.166 7.56018C100.716 7.56018 100.359 7.6611 100.095 7.86293C99.8467 8.06477 99.7225 8.352 99.7225 8.72462C99.7225 8.94198 99.7613 9.14382 99.8389 9.33013C99.9321 9.50091 100.072 9.66393 100.258 9.81919C100.46 9.97445 100.631 10.0987 100.77 10.1918C100.926 10.285 101.151 10.4092 101.446 10.5644C101.555 10.6265 101.632 10.6654 101.679 10.6809C101.71 10.6964 101.826 10.7585 102.028 10.8672C102.23 10.9759 102.354 11.0457 102.401 11.0768C102.463 11.1078 102.587 11.1855 102.773 11.3097C102.975 11.4184 103.115 11.5038 103.193 11.5659C103.27 11.628 103.387 11.7211 103.542 11.8453C103.713 11.9695 103.829 12.0782 103.891 12.1714C103.969 12.2645 104.062 12.3887 104.171 12.544C104.295 12.6837 104.38 12.8235 104.427 12.9632C104.473 13.0874 104.512 13.2349 104.543 13.4057C104.59 13.5609 104.613 13.724 104.613 13.8947C104.613 14.8729 104.233 15.6492 103.472 16.2236C102.727 16.7825 101.818 17.062 100.747 17.062C99.7846 17.062 98.7832 16.8447 97.7429 16.4099C97.6653 16.146 97.5877 15.719 97.51 15.129C97.4324 14.5235 97.3936 14.0733 97.3936 13.7783C97.4867 13.7007 97.5954 13.6618 97.7196 13.6618C98.0767 13.6618 98.263 13.724 98.2786 13.8482C98.4028 14.5002 98.7055 15.0281 99.1868 15.4318C99.6837 15.8199 100.219 16.014 100.794 16.014C101.228 16.014 101.586 15.9053 101.865 15.688C102.145 15.4706 102.284 15.1523 102.284 14.7331C102.284 14.5779 102.261 14.4381 102.214 14.3139C102.183 14.1742 102.113 14.0422 102.005 13.918C101.896 13.7783 101.803 13.6696 101.725 13.592C101.663 13.4988 101.523 13.3901 101.306 13.2659C101.104 13.1417 100.949 13.0563 100.84 13.0098C100.747 12.9477 100.553 12.8467 100.258 12.707C99.9787 12.5517 99.7846 12.4431 99.6759 12.381C98.9617 12.0083 98.4105 11.5969 98.0224 11.1467C97.6342 10.6809 97.4402 10.1219 97.4402 9.46986C97.4402 8.52278 97.8128 7.79307 98.558 7.28071C99.3033 6.76836 100.173 6.51218 101.166 6.51218Z" fill="black"/>
<path d="M106.663 3.78739C106.384 3.4924 106.244 3.15083 106.244 2.76268C106.244 2.35901 106.384 2.01744 106.663 1.73797C106.943 1.45851 107.285 1.31877 107.688 1.31877C108.092 1.31877 108.433 1.45851 108.713 1.73797C108.992 2.01744 109.132 2.35901 109.132 2.76268C109.132 3.15083 108.992 3.4924 108.713 3.78739C108.433 4.06685 108.092 4.20659 107.688 4.20659C107.285 4.20659 106.943 4.06685 106.663 3.78739ZM109.086 13.5221C109.086 14.4692 109.148 15.1679 109.272 15.6181C109.303 15.7268 109.512 15.8432 109.901 15.9674C110.289 16.0761 110.553 16.1305 110.692 16.1305C110.755 16.1305 110.786 16.2469 110.786 16.4798C110.801 16.6972 110.793 16.8447 110.762 16.9223C110.654 16.9068 110.234 16.8757 109.505 16.8291C108.791 16.7825 108.263 16.7593 107.921 16.7593C107.533 16.7593 106.982 16.7825 106.268 16.8291C105.569 16.8757 105.165 16.9068 105.057 16.9223C104.994 16.8602 104.963 16.7127 104.963 16.4798C104.963 16.2469 104.994 16.1305 105.057 16.1305C105.227 16.1305 105.507 16.0761 105.895 15.9674C106.283 15.8432 106.493 15.7268 106.524 15.6181C106.632 15.1523 106.687 14.5856 106.687 13.918V10.1219C106.687 9.39223 106.563 8.8954 106.314 8.63146C106.174 8.4762 105.996 8.35976 105.779 8.28213C105.561 8.2045 105.375 8.15792 105.22 8.1424C105.064 8.12687 104.987 8.10358 104.987 8.07253C104.987 7.62228 105.033 7.38939 105.126 7.37387C105.561 7.34281 106.19 7.24966 107.013 7.0944C107.836 6.93914 108.449 6.79941 108.853 6.6752C108.868 6.6752 108.899 6.66744 108.946 6.65191C109.008 6.63639 109.039 6.62862 109.039 6.62862C109.117 6.62862 109.179 6.68296 109.225 6.79165C109.272 6.90033 109.287 6.98572 109.272 7.04782C109.148 8.04148 109.086 8.70909 109.086 9.05066V13.5221Z" fill="black"/>
<path d="M118.635 18.7621C118.635 18.2187 118.239 17.8538 117.447 17.6675C116.671 17.4967 115.623 17.4113 114.303 17.4113C114.272 17.4113 114.233 17.4191 114.187 17.4346C114.156 17.4502 114.117 17.4735 114.07 17.5045C113.868 17.5821 113.713 17.6442 113.604 17.6908C113.496 17.7529 113.372 17.8383 113.232 17.947C113.092 18.0712 112.983 18.2109 112.906 18.3662C112.844 18.5214 112.813 18.7078 112.813 18.9251C112.813 19.4841 113.108 19.9498 113.698 20.3224C114.288 20.6951 114.947 20.8814 115.677 20.8814C116.547 20.8814 117.253 20.6795 117.796 20.2759C118.355 19.8722 118.635 19.3676 118.635 18.7621ZM113.651 9.95893C113.651 10.7197 113.806 11.364 114.117 11.8919C114.427 12.4043 114.862 12.6604 115.421 12.6604C115.995 12.6604 116.415 12.4431 116.679 12.0083C116.958 11.5581 117.098 11.0069 117.098 10.3548C117.098 9.53196 116.943 8.86435 116.632 8.352C116.322 7.83964 115.871 7.58347 115.281 7.58347C114.722 7.58347 114.311 7.82412 114.047 8.30542C113.783 8.78672 113.651 9.33789 113.651 9.95893ZM115.421 6.58205C115.98 6.58205 116.624 6.68296 117.354 6.8848C118.084 7.08664 118.705 7.18756 119.217 7.18756H120.545C120.576 7.18756 120.63 7.28847 120.708 7.49031C120.785 7.69215 120.824 7.84741 120.824 7.95609C120.824 8.17345 120.777 8.28213 120.684 8.28213H119.171C119.108 8.28213 119.077 8.30542 119.077 8.352C119.077 8.36752 119.147 8.56936 119.287 8.95751C119.427 9.34565 119.497 9.71827 119.497 10.0754C119.497 10.9914 119.108 11.822 118.332 12.5673C117.571 13.297 116.616 13.6618 115.468 13.6618C114.909 13.6618 114.427 13.6308 114.024 13.5687C113.837 13.6463 113.667 13.7938 113.511 14.0112C113.356 14.213 113.278 14.3993 113.278 14.5701C113.278 14.7254 113.348 14.8573 113.488 14.966C113.643 15.0747 113.876 15.1523 114.187 15.1989C114.497 15.2455 114.761 15.2765 114.979 15.2921C115.196 15.3076 115.506 15.3231 115.91 15.3386C116.081 15.3386 116.197 15.3386 116.259 15.3386C117.812 15.3852 118.945 15.6026 119.66 15.9907C120.389 16.3634 120.754 16.93 120.754 17.6908C120.77 18.8553 120.211 19.8644 119.077 20.7184C117.944 21.5723 116.632 21.9992 115.142 21.9992C114.008 22.0148 113.014 21.7974 112.161 21.3472C111.322 20.8969 110.903 20.2603 110.903 19.4375C110.903 18.9872 111.12 18.5525 111.555 18.1333C112.005 17.7141 112.487 17.4191 112.999 17.2483C112.595 17.1241 112.223 16.8912 111.881 16.5497C111.54 16.1926 111.369 15.7811 111.369 15.3154C111.369 14.6477 111.943 13.9568 113.092 13.2426C112.642 13.0408 112.223 12.6449 111.835 12.0549C111.446 11.4494 111.252 10.8128 111.252 10.1452C111.252 9.0429 111.656 8.17345 112.463 7.53689C113.271 6.90033 114.257 6.58205 115.421 6.58205Z" fill="black"/>
<path d="M128.743 6.53547C130.73 6.53547 131.724 8.06477 131.724 11.1234V13.5221C131.724 14.4692 131.786 15.1679 131.91 15.6181C131.926 15.7268 132.128 15.8432 132.516 15.9674C132.92 16.0761 133.191 16.1305 133.331 16.1305C133.378 16.1305 133.401 16.2469 133.401 16.4798C133.416 16.6972 133.416 16.8447 133.401 16.9223C133.292 16.9068 132.873 16.8757 132.143 16.8291C131.429 16.7825 130.901 16.7593 130.56 16.7593C130.172 16.7593 129.644 16.7825 128.976 16.8291C128.324 16.8757 127.92 16.9068 127.765 16.9223C127.718 16.8602 127.695 16.7127 127.695 16.4798C127.695 16.2469 127.718 16.1305 127.765 16.1305C127.951 16.1305 128.215 16.0761 128.557 15.9674C128.914 15.8432 129.116 15.7268 129.162 15.6181C129.255 15.1523 129.302 14.5856 129.302 13.918V11.6357C129.302 10.3471 129.124 9.4621 128.766 8.98079C128.425 8.48397 127.874 8.23555 127.113 8.23555C126.647 8.23555 126.22 8.36752 125.832 8.63146C125.444 8.8954 125.25 9.19039 125.25 9.51644V13.5221C125.25 14.4692 125.312 15.1679 125.436 15.6181C125.467 15.7268 125.669 15.8432 126.042 15.9674C126.43 16.0761 126.694 16.1305 126.833 16.1305C126.88 16.1305 126.903 16.2469 126.903 16.4798C126.919 16.6972 126.911 16.8447 126.88 16.9223C126.756 16.9068 126.344 16.8757 125.646 16.8291C124.963 16.7825 124.442 16.7593 124.085 16.7593C123.713 16.7593 123.169 16.7825 122.455 16.8291C121.756 16.8757 121.345 16.9068 121.221 16.9223C121.159 16.8602 121.128 16.7127 121.128 16.4798C121.128 16.2469 121.159 16.1305 121.221 16.1305C121.407 16.1305 121.687 16.0761 122.059 15.9674C122.447 15.8432 122.657 15.7268 122.688 15.6181C122.797 15.1523 122.851 14.5934 122.851 13.9413V4.25317C122.851 3.63213 122.812 3.10425 122.735 2.66953C122.657 2.42111 122.253 2.2969 121.524 2.2969H121.314C121.221 2.2969 121.174 2.1727 121.174 1.92428C121.174 1.67587 121.221 1.55166 121.314 1.55166C121.795 1.50508 122.253 1.44298 122.688 1.36535C123.123 1.28772 123.48 1.21009 123.759 1.13246C124.054 1.05483 124.303 0.977205 124.505 0.899575C124.722 0.821946 124.885 0.767605 124.994 0.736553C125.118 0.689976 125.18 0.666687 125.18 0.666687H125.227C125.289 0.666687 125.351 0.713265 125.413 0.80642C125.475 0.884049 125.514 0.961679 125.529 1.03931C125.343 1.64482 125.25 2.37453 125.25 3.22846V7.9328C125.25 8.02595 125.281 8.07253 125.343 8.07253C125.358 8.07253 125.39 8.04924 125.436 8.00266C125.762 7.63004 126.236 7.29624 126.857 7.00125C127.493 6.69073 128.122 6.53547 128.743 6.53547Z" fill="black"/>
<path d="M134.985 8.16569H133.565C133.456 8.16569 133.402 7.96385 133.402 7.56018C133.402 7.4515 133.41 7.38163 133.425 7.35058C134.046 7.07111 134.644 6.65968 135.218 6.11627C135.42 5.91443 135.638 5.68931 135.87 5.44089C136.119 5.17695 136.321 4.94407 136.476 4.74223C136.647 4.54039 136.732 4.43948 136.732 4.43948C136.887 4.43948 137.035 4.46276 137.175 4.50934C137.314 4.54039 137.384 4.57921 137.384 4.62579V6.90809C137.788 6.90809 138.347 6.91585 139.061 6.93138C139.791 6.93138 140.179 6.93138 140.225 6.93138C140.35 6.93138 140.412 7.00125 140.412 7.14098C140.412 7.5136 140.334 7.85517 140.179 8.16569H137.384V13.7783C137.384 14.3993 137.516 14.8729 137.78 15.1989C138.044 15.525 138.409 15.688 138.875 15.688C139.03 15.688 139.193 15.6724 139.364 15.6414C139.535 15.5948 139.674 15.5482 139.783 15.5017C139.892 15.4551 139.993 15.4085 140.086 15.3619C140.179 15.3154 140.233 15.2921 140.249 15.2921C140.311 15.2765 140.381 15.3464 140.458 15.5017C140.536 15.6569 140.567 15.7578 140.551 15.8044C140.458 16.0218 140.125 16.278 139.55 16.5729C138.991 16.8524 138.44 16.9921 137.897 16.9921C137.089 16.9921 136.398 16.736 135.824 16.2236C135.265 15.6957 134.985 14.8884 134.985 13.8016V8.16569Z" fill="black"/>
<path d="M144.628 6.51218C145.497 6.51218 146.398 6.64415 147.329 6.90809C147.485 7.60675 147.57 8.4762 147.586 9.51644C147.586 9.64065 147.485 9.70275 147.283 9.70275C146.941 9.70275 146.755 9.64065 146.724 9.51644C146.615 8.97303 146.382 8.51502 146.025 8.1424C145.684 7.75425 145.218 7.56018 144.628 7.56018C144.178 7.56018 143.821 7.6611 143.557 7.86293C143.308 8.06477 143.184 8.352 143.184 8.72462C143.184 8.94198 143.223 9.14382 143.301 9.33013C143.394 9.50091 143.533 9.66393 143.72 9.81919C143.922 9.97445 144.092 10.0987 144.232 10.1918C144.387 10.285 144.612 10.4092 144.907 10.5644C145.016 10.6265 145.094 10.6654 145.14 10.6809C145.171 10.6964 145.288 10.7585 145.49 10.8672C145.691 10.9759 145.816 11.0457 145.862 11.0768C145.924 11.1078 146.049 11.1855 146.235 11.3097C146.437 11.4184 146.576 11.5038 146.654 11.5659C146.732 11.628 146.848 11.7211 147.003 11.8453C147.174 11.9695 147.291 12.0782 147.353 12.1714C147.43 12.2645 147.524 12.3887 147.632 12.544C147.756 12.6837 147.842 12.8235 147.888 12.9632C147.935 13.0874 147.974 13.2349 148.005 13.4057C148.051 13.5609 148.075 13.724 148.075 13.8947C148.075 14.8729 147.694 15.6492 146.934 16.2236C146.188 16.7825 145.28 17.062 144.209 17.062C143.246 17.062 142.245 16.8447 141.205 16.4099C141.127 16.146 141.049 15.719 140.972 15.129C140.894 14.5235 140.855 14.0733 140.855 13.7783C140.948 13.7007 141.057 13.6618 141.181 13.6618C141.538 13.6618 141.725 13.724 141.74 13.8482C141.864 14.5002 142.167 15.0281 142.648 15.4318C143.145 15.8199 143.681 16.014 144.255 16.014C144.69 16.014 145.047 15.9053 145.327 15.688C145.606 15.4706 145.746 15.1523 145.746 14.7331C145.746 14.5779 145.723 14.4381 145.676 14.3139C145.645 14.1742 145.575 14.0422 145.466 13.918C145.358 13.7783 145.265 13.6696 145.187 13.592C145.125 13.4988 144.985 13.3901 144.768 13.2659C144.566 13.1417 144.411 13.0563 144.302 13.0098C144.209 12.9477 144.015 12.8467 143.72 12.707C143.44 12.5517 143.246 12.4431 143.137 12.381C142.423 12.0083 141.872 11.5969 141.484 11.1467C141.096 10.6809 140.902 10.1219 140.902 9.46986C140.902 8.52278 141.274 7.79307 142.02 7.28071C142.765 6.76836 143.634 6.51218 144.628 6.51218Z" fill="black"/>
</svg>
